HIERARCHY
ROOT Hips
{
	OFFSET 0.00 0.00 0.00
	CHANNELS 6 Xposition Yposition Zposition Xrotation Yrotation Zrotation
	JOINT Spine
	{
		OFFSET 0.00000 0.84964 1.27446
		CHANNELS 3 Xrotation Yrotation Zrotation
		JOINT Spine1
		{
			OFFSET 0.00000 0.29508 1.67346
			CHANNELS 3 Xrotation Yrotation Zrotation
			JOINT Spine2
			{
				OFFSET 0.00000 0.14810 1.69281
				CHANNELS 3 Xrotation Yrotation Zrotation
				JOINT Spine3
				{
					OFFSET 0.00000 0.00000 1.69928
					CHANNELS 3 Xrotation Yrotation Zrotation
					JOINT Neck
					{
						OFFSET 0.00000 -0.63723 4.46061
						CHANNELS 3 Xrotation Yrotation Zrotation
						JOINT Head
						{
							OFFSET 0.00000 -0.40573 2.30101
							CHANNELS 3 Xrotation Yrotation Zrotation
							End Site
							{
								OFFSET 0.00000 0.00000 2.75071
							}
						}
					}
					JOINT RightShoulder
					{
						OFFSET -0.72014 -1.20022 3.88874
						CHANNELS 3 Xrotation Yrotation Zrotation
						JOINT RightArm
						{
							OFFSET -3.57668 0.00000 0.00000
							CHANNELS 3 Xrotation Yrotation Zrotation
							JOINT RightForeArm
							{
								OFFSET -5.92485 0.00000 0.00000
								CHANNELS 3 Xrotation Yrotation Zrotation
								JOINT RightHand
								{
									OFFSET -6.63013 0.00000 0.00000
									CHANNELS 3 Xrotation Yrotation Zrotation
									JOINT RightHandEnd
									{
										OFFSET -1.65321 0.00000 0.00000
										CHANNELS 3 Xrotation Yrotation Zrotation
										End Site
										{
											OFFSET -1.65321 0.00000 0.00000
										}
									}
									JOINT RightHandThumb1
									{
										OFFSET -0.66129 -1.10214 -0.44086
										CHANNELS 3 Yrotation Xrotation Zrotation
										End Site
										{
											OFFSET -1.59688 -0.42788 0.00000
										}
									}
								}
							}
						}
					}
					JOINT LeftShoulder
					{
						OFFSET 0.72014 -1.20022 3.88874
						CHANNELS 3 Xrotation Yrotation Zrotation
						JOINT LeftArm
						{
							OFFSET 3.57668 0.00000 0.00000
							CHANNELS 3 Xrotation Yrotation Zrotation
							JOINT LeftForeArm
							{
								OFFSET 5.92485 0.00000 0.00000
								CHANNELS 3 Xrotation Yrotation Zrotation
								JOINT LeftHand
								{
									OFFSET 6.63013 0.00000 0.00000
									CHANNELS 3 Xrotation Yrotation Zrotation
									JOINT LeftHandEnd
									{
										OFFSET 1.65321 0.00000 0.00000
										CHANNELS 3 Xrotation Yrotation Zrotation
										End Site
										{
											OFFSET 1.65321 0.00000 0.00000
										}
									}
									JOINT LeftHandThumb1
									{
										OFFSET 0.66129 -1.10214 -0.44086
										CHANNELS 3 Yrotation Xrotation Zrotation
										End Site
										{
											OFFSET 1.59688 -0.42788 0.00000
										}
									}
								}
							}
						}
					}
				}
			}
		}
	}
	JOINT RightUpLeg
	{
		OFFSET -2.13640 0.00000 -0.62412
		CHANNELS 3 Xrotation Yrotation Zrotation
		JOINT RightLeg
		{
			OFFSET 0.00000 0.00000 -11.49360
			CHANNELS 3 Xrotation Yrotation Zrotation
			JOINT RightFoot
			{
				OFFSET 0.00000 0.00000 -8.79036
				CHANNELS 3 Xrotation Yrotation Zrotation
				JOINT RightToeBase
				{
					OFFSET 0.00000 -3.94625 -1.43632
					CHANNELS 3 Xrotation Yrotation Zrotation
					End Site
					{
						OFFSET 0.00000 -1.72833 -0.00000
					}
				}
			}
		}
	}
	JOINT LeftUpLeg
	{
		OFFSET 2.13640 0.00000 -0.62412
		CHANNELS 3 Xrotation Yrotation Zrotation
		JOINT LeftLeg
		{
			OFFSET 0.00000 0.00000 -11.49360
			CHANNELS 3 Xrotation Yrotation Zrotation
			JOINT LeftFoot
			{
				OFFSET 0.00000 0.00000 -8.79036
				CHANNELS 3 Xrotation Yrotation Zrotation
				JOINT LeftToeBase
				{
					OFFSET 0.00000 -3.94625 -1.43632
					CHANNELS 3 Xrotation Yrotation Zrotation
					End Site
					{
						OFFSET 0.00000 -1.72833 -0.00000
					}
				}
			}
		}
	}
}
MOTION
Frames: 18
Frame Time: 0.008342
 -0.5967 17.4728 23.3294 -8.5279 -4.6495 -169.1535 21.5241 -5.5102 1.3267 3.8222 -2.0504 -0.0386 5.0885 -1.7321 9.7165 -0.5965 5.5598 -0.7143 -3.4791 8.7119 -1.6821 4.3012 -3.0964 -15.5135 -7.7673 3.4364 15.6030 45.8748 -43.3445 53.9679 0.0000 0.0000 19.6850 -9.1909 45.6898 13.4670 0.0000 0.0000 0.0000 0.0000 0.0000 0.0000 -0.8173 16.7437 -12.2680 29.2385 50.9944 -41.0131 -0.0000 -0.0000 -24.6739 -5.2743 -12.8820 8.3751 0.0000 0.0000 -0.0000 0.0000 0.0000 -0.0000 -17.7225 1.4100 -68.6555 3.1896 0.0000 0.0000 -1.4870 6.9220 40.8199 -0.1284 0.0000 -0.0000 -15.8625 1.5009 17.0787 -5.4673 0.0000 -0.0000 7.5738 -10.3080 -7.7264 -18.3482 0.0000 -0.0000
 -0.5621 17.3564 23.3073 -9.4962 -5.0386 -169.0853 21.9526 -5.5948 1.5558 3.8713 -2.1083 -0.0317 5.1570 -1.8811 9.9944 -0.6633 5.4863 -0.6546 -3.9503 8.8344 -1.7569 3.6907 -3.0375 -16.1195 -8.1001 3.8997 16.2272 44.4077 -43.4159 52.9548 0.0000 0.0000 19.7094 -9.6574 46.0007 13.4990 0.0000 -0.0000 0.0000 -0.0000 -0.0000 -0.0000 -0.7671 16.5851 -12.7240 28.5882 51.2267 -41.1698 -0.0000 -0.0000 -25.1554 -5.1781 -13.1668 8.2595 0.0000 0.0000 -0.0000 0.0000 0.0000 -0.0000 -18.9567 0.9639 -69.1306 2.4710 0.0000 0.0000 -0.9244 7.1273 41.0912 -0.2139 0.0000 -0.0000 -16.8738 1.4023 16.7297 -6.4355 0.0000 -0.0000 8.4657 -10.0155 -7.6133 -18.2292 0.0000 -0.0000
 -0.5262 17.2390 23.2825 -10.5534 -5.4270 -169.1324 22.3493 -5.6277 1.8113 3.9175 -2.1602 -0.0167 5.2055 -2.0038 10.3247 -0.7297 5.4097 -0.5903 -4.4201 8.9527 -1.8450 3.0769 -2.9848 -16.7444 -8.4381 4.3573 16.8656 42.8833 -43.4588 51.8812 0.0000 0.0000 19.7251 -10.1284 46.2908 13.5160 -0.0000 -0.0000 -0.0000 -0.0000 -0.0000 0.0000 -0.7614 16.3755 -13.1795 27.9314 51.5790 -41.2873 -0.0000 -0.0000 -25.6672 -5.0959 -13.4527 8.1328 0.0000 0.0000 -0.0000 0.0000 0.0000 0.0000 -20.2880 0.4838 -69.4217 1.7005 0.0000 0.0000 -0.3091 7.3169 41.2833 -0.3106 0.0000 -0.0000 -17.9756 1.2841 16.4059 -7.3937 0.0000 -0.0000 9.3572 -9.6833 -7.4646 -18.0986 0.0000 -0.0000
 -0.4896 17.1213 23.2551 -11.6769 -5.7974 -169.2856 22.7337 -5.6063 2.0832 3.9671 -2.2035 0.0075 5.2342 -2.0966 10.7086 -0.7980 5.3356 -0.5216 -4.8924 9.0657 -1.9462 2.4642 -2.9386 -17.3907 -8.7798 4.8076 17.5093 41.3068 -43.4671 50.7539 0.0000 0.0000 19.7265 -10.6019 46.5682 13.5216 -0.0000 0.0000 -0.0000 -0.0000 0.0000 -0.0000 -0.8054 16.1171 -13.6371 27.2804 52.0422 -41.3702 -0.0000 -0.0000 -26.2053 -5.0316 -13.7313 7.9968 0.0000 0.0000 0.0000 -0.0000 -0.0000 0.0000 -21.6905 -0.0097 -69.4583 0.9070 0.0000 0.0000 0.3472 7.4955 41.3217 -0.4161 0.0000 -0.0000 -19.1550 1.1522 16.1125 -8.3088 0.0000 -0.0000 10.2377 -9.3203 -7.2972 -17.9699 0.0000 -0.0000
 -0.4530 17.0043 23.2253 -12.8296 -6.1367 -169.5242 23.1405 -5.5362 2.3619 4.0228 -2.2346 0.0444 5.2423 -2.1621 11.1429 -0.8661 5.2655 -0.4565 -5.3732 9.1752 -2.0534 1.8554 -2.8950 -18.0629 -9.1301 5.2565 18.1518 39.6934 -43.4353 49.5920 0.0000 0.0000 19.7006 -11.0649 46.8370 13.5180 0.0000 -0.0000 -0.0000 -0.0000 -0.0000 0.0000 -0.9106 15.8236 -14.0942 26.6473 52.5998 -41.4163 -0.0000 -0.0000 -26.7690 -4.9914 -13.9881 7.8512 -0.0000 -0.0000 0.0000 -0.0000 -0.0000 0.0000 -23.1193 -0.5020 -69.2132 0.1106 0.0000 0.0000 1.0344 7.6665 41.1635 -0.5293 0.0000 -0.0000 -20.3819 1.0106 15.8510 -9.1557 0.0000 -0.0000 11.1001 -8.9383 -7.1316 -17.8594 0.0000 -0.0000
 -0.4169 16.8885 23.1934 -14.0026 -6.4401 -169.8277 23.5695 -5.4258 2.6379 4.0927 -2.2616 0.0826 5.2321 -2.1904 11.6259 -0.9386 5.2034 -0.3860 -5.8621 9.2831 -2.1667 1.2510 -2.8520 -18.7611 -9.4834 5.6974 18.7805 38.0452 -43.3472 48.3990 0.0000 0.0000 19.6414 -11.5136 47.1007 13.5056 -0.0000 0.0000 -0.0000 -0.0000 -0.0000 0.0000 -1.0610 15.5139 -14.5606 26.0272 53.2126 -41.4271 -0.0000 -0.0000 -27.3562 -4.9736 -14.2200 7.6983 0.0000 0.0000 0.0000 0.0000 -0.0000 0.0000 -24.5621 -0.9773 -68.6731 -0.6658 0.0000 -0.0000 1.7406 7.8366 40.7761 -0.6499 0.0000 -0.0000 -21.6585 0.8629 15.6149 -9.9087 0.0000 -0.0000 11.9382 -8.5514 -6.9787 -17.7837 0.0000 -0.0000
 -0.3822 16.7750 23.1599 -15.1500 -6.7013 -170.1697 24.0654 -5.2857 2.9062 4.1736 -2.2801 0.1279 5.2021 -2.1937 12.1475 -1.0110 5.1498 -0.3264 -6.3615 9.3963 -2.2712 0.6509 -2.8059 -19.4868 -9.8374 6.1398 19.3999 36.3730 -43.1931 47.1957 0.0000 0.0000 19.5346 -11.9447 47.3582 13.4829 0.0000 0.0000 -0.0000 0.0000 -0.0000 0.0000 -1.2561 15.2154 -15.0295 25.4176 53.8455 -41.3929 -0.0000 -0.0000 -27.9722 -4.9782 -14.4143 7.5407 0.0000 0.0000 -0.0000 0.0000 0.0000 0.0000 -25.9665 -1.4240 -67.8786 -1.4050 0.0000 -0.0000 2.4478 8.0108 40.1779 -0.7766 0.0000 -0.0000 -22.9387 0.7132 15.3913 -10.5620 0.0000 -0.0000 12.7533 -8.1737 -6.8416 -17.7559 0.0000 -0.0000
 -0.3496 16.6646 23.1252 -16.2486 -6.9234 -170.5282 24.6442 -5.1365 3.1578 4.2655 -2.2908 0.1774 5.1593 -2.1713 12.7011 -1.0852 5.1141 -0.2753 -6.8705 9.5110 -2.3646 0.0535 -2.7516 -20.2352 -10.1954 6.5736 20.0029 34.6881 -42.9579 45.9905 0.0000 0.0000 19.3755 -12.3527 47.6015 13.4448 -0.0000 0.0000 0.0000 -0.0000 -0.0000 0.0000 -1.4701 14.9409 -15.5042 24.8052 54.4606 -41.3249 -0.0000 -0.0000 -28.6132 -5.0031 -14.5866 7.3792 -0.0000 -0.0000 -0.0000 -0.0000 -0.0000 0.0000 -27.3090 -1.8337 -66.9063 -2.0875 0.0000 -0.0000 3.1334 8.1963 39.4235 -0.9074 0.0000 -0.0000 -24.2001 0.5622 15.1686 -11.1139 0.0000 -0.0000 13.5458 -7.8217 -6.7197 -17.7864 0.0000 -0.0000
 -0.3196 16.5575 23.0897 -17.2987 -7.1163 -170.8858 25.2939 -4.9942 3.3939 4.3744 -2.2885 0.2346 5.1026 -2.1362 13.2660 -1.1589 5.0950 -0.2378 -7.3863 9.6324 -2.4366 -0.5429 -2.6844 -21.0011 -10.5554 7.0006 20.5943 32.9998 -42.6295 44.7955 0.0000 0.0000 19.1610 -12.7324 47.8232 13.3797 0.0000 -0.0000 -0.0000 -0.0000 0.0000 0.0000 -1.6804 14.7162 -15.9835 24.1660 55.0194 -41.2116 -0.0000 -0.0000 -29.2845 -5.0369 -14.7392 7.2136 -0.0000 0.0000 0.0000 -0.0000 0.0000 0.0000 -28.5948 -2.1994 -65.8546 -2.6926 0.0000 -0.0000 3.7709 8.4033 38.5898 -1.0399 0.0000 -0.0000 -25.4438 0.4110 14.9381 -11.5673 0.0000 -0.0000 14.3158 -7.5127 -6.6113 -17.8798 0.0000 -0.0000
 -0.2930 16.4541 23.0537 -18.2874 -7.2896 -171.2311 26.0369 -4.8700 3.6164 4.4787 -2.2801 0.2859 5.0367 -2.0897 13.8461 -1.2314 5.0892 -0.2185 -7.9044 9.7652 -2.4784 -1.1360 -2.5965 -21.7794 -10.9116 7.4335 21.1798 31.3107 -42.2142 43.6223 0.0000 0.0000 18.8898 -13.0885 48.0107 13.2927 0.0000 -0.0000 0.0000 -0.0000 -0.0000 0.0000 -1.8665 14.5667 -16.4588 23.4856 55.4902 -41.0546 -0.0000 -0.0000 -29.9873 -5.0810 -14.8833 7.0452 -0.0000 -0.0000 0.0000 -0.0000 0.0000 0.0000 -29.8214 -2.5149 -64.8796 -3.1883 0.0000 -0.0000 4.3162 8.6441 37.8182 -1.1694 0.0000 -0.0000 -26.6509 0.2595 14.7024 -11.9380 0.0000 -0.0000 15.0639 -7.2645 -6.5178 -18.0347 0.0000 -0.0000
 -0.2697 16.3545 23.0175 -19.2316 -7.4560 -171.5585 26.8328 -4.7758 3.8316 4.5930 -2.2657 0.3393 4.9666 -2.0396 14.4077 -1.3036 5.1023 -0.2105 -8.4170 9.9035 -2.4916 -1.7299 -2.4868 -22.5559 -11.2662 7.8612 21.7625 29.6260 -41.7071 42.4716 0.0000 0.0000 18.5726 -13.4101 48.1524 13.1611 0.0000 0.0000 0.0000 -0.0000 0.0000 0.0000 -1.9883 14.4896 -16.9396 22.7238 55.8531 -40.8464 -0.0000 -0.0000 -30.7258 -5.1206 -15.0384 6.8755 -0.0000 0.0000 -0.0000 0.0000 -0.0000 0.0000 -31.0123 -2.7841 -64.0491 -3.5696 0.0000 -0.0000 4.7575 8.9242 37.1639 -1.2947 0.0000 -0.0000 -27.8323 0.1056 14.4466 -12.2412 0.0000 -0.0000 15.7912 -7.0879 -6.4197 -18.2444 0.0000 -0.0000
 -0.2502 16.2585 22.9812 -20.1440 -7.6210 -171.8709 27.6722 -4.7083 4.0452 4.7032 -2.2480 0.3847 4.8930 -1.9893 14.9490 -1.3726 5.1273 -0.2182 -8.9174 10.0460 -2.4723 -2.3243 -2.3520 -23.3195 -11.6138 8.2864 22.3504 27.9439 -41.1150 41.3461 0.0000 0.0000 18.2214 -13.7053 48.2400 12.9850 -0.0000 -0.0000 0.0000 -0.0000 -0.0000 -0.0000 -2.0230 14.4869 -17.4181 21.8592 56.1039 -40.5873 -0.0000 -0.0000 -31.5001 -5.1509 -15.2229 6.7022 0.0000 0.0000 0.0000 -0.0000 0.0000 -0.0000 -32.1889 -3.0054 -63.4361 -3.8210 0.0000 -0.0000 5.0711 9.2496 36.6999 -1.4129 0.0000 -0.0000 -28.9907 -0.0481 14.1762 -12.4982 0.0000 -0.0000 16.4981 -6.9900 -6.3079 -18.4952 0.0000 -0.0000
 -0.2340 16.1663 22.9450 -21.0393 -7.7964 -172.1638 28.5305 -4.6743 4.2575 4.8088 -2.2255 0.4239 4.8135 -1.9454 15.4552 -1.4337 5.1610 -0.2412 -9.4005 10.1855 -2.4224 -2.9172 -2.1900 -24.0575 -11.9485 8.7055 22.9474 26.2590 -40.4457 40.2453 0.0000 0.0000 17.8537 -13.9733 48.2707 12.7582 -0.0000 -0.0000 0.0000 -0.0000 -0.0000 0.0000 -1.9537 14.5502 -17.8930 20.8688 56.2497 -40.2692 -0.0000 -0.0000 -32.3119 -5.1568 -15.4474 6.5254 0.0000 -0.0000 -0.0000 0.0000 -0.0000 0.0000 -33.3635 -3.1913 -63.0210 -3.9639 0.0000 -0.0000 5.2768 9.6103 36.3968 -1.5250 0.0000 -0.0000 -30.1312 -0.2028 13.8912 -12.7317 0.0000 -0.0000 17.1842 -6.9718 -6.1796 -18.7714 0.0000 -0.0000
 -0.2209 16.0780 22.9091 -21.9299 -7.9815 -172.4440 29.3855 -4.6635 4.4729 4.9063 -2.2028 0.4558 4.7410 -1.9075 15.9166 -1.4937 5.2020 -0.2770 -9.8575 10.3167 -2.3499 -3.5096 -2.0062 -24.7572 -12.2943 9.1069 23.5531 24.5919 -39.7210 39.1717 0.0000 0.0000 17.4866 -14.2124 48.2348 12.4866 0.0000 0.0000 -0.0000 0.0000 0.0000 0.0000 -1.7635 14.6564 -18.3654 19.7331 56.3149 -39.8944 -0.0000 -0.0000 -33.1552 -5.1343 -15.7272 6.3394 -0.0000 0.0000 -0.0000 -0.0000 0.0000 0.0000 -34.5459 -3.3483 -62.8203 -4.0139 0.0000 -0.0000 5.3787 9.9999 36.2796 -1.6290 0.0000 -0.0000 -31.2538 -0.3550 13.6002 -12.9624 0.0000 -0.0000 17.8481 -7.0257 -6.0279 -19.0537 0.0000 -0.0000
 -0.2103 15.9938 22.8734 -22.8348 -8.1861 -172.7069 30.2122 -4.6757 4.6864 4.9868 -2.1838 0.4821 4.6752 -1.8755 16.3204 -1.5470 5.2432 -0.3217 -10.2865 10.4288 -2.2595 -4.0991 -1.8008 -25.4082 -12.6297 9.4909 24.1748 22.9095 -38.9588 38.1081 0.0000 0.0000 17.1472 -14.4183 48.1446 12.1658 -0.0000 0.0000 0.0000 0.0000 -0.0000 -0.0000 -1.4552 14.7864 -18.8329 18.4452 56.3248 -39.4518 -0.0000 -0.0000 -34.0337 -5.0808 -16.0647 6.1481 0.0000 0.0000 0.0000 0.0000 0.0000 0.0000 -35.7427 -3.4932 -62.7255 -4.0165 0.0000 -0.0000 5.4297 10.3951 36.2320 -1.7276 0.0000 -0.0000 -32.3700 -0.5082 13.2747 -13.2078 0.0000 -0.0000 18.4930 -7.1329 -5.8277 -19.3244 0.0000 -0.0000
 -0.2019 15.9137 22.8381 -23.7726 -8.3924 -172.9668 30.9797 -4.6840 4.8953 5.0627 -2.1690 0.5023 4.6133 -1.8511 16.6642 -1.5960 5.2839 -0.3734 -10.6824 10.5162 -2.1605 -4.6845 -1.5811 -26.0025 -12.9661 9.8500 24.8064 21.2248 -38.1764 37.0627 0.0000 0.0000 16.8495 -14.5961 48.0046 11.8126 -0.0000 -0.0000 -0.0000 0.0000 0.0000 0.0000 -1.0393 14.9136 -19.2907 17.0137 56.3193 -38.9478 -0.0000 -0.0000 -34.9392 -4.9933 -16.4661 5.9483 0.0000 0.0000 -0.0000 0.0000 0.0000 0.0000 -36.9629 -3.6241 -62.6625 -3.9998 0.0000 -0.0000 5.4563 10.7834 36.2048 -1.8215 0.0000 -0.0000 -33.4908 -0.6456 12.9822 -13.4740 0.0000 -0.0000 19.1089 -7.2833 -5.6235 -19.5612 0.0000 -0.0000
 -0.1952 15.8381 22.8033 -24.7348 -8.6038 -173.2183 31.6947 -4.6900 5.0959 5.1256 -2.1608 0.5147 4.5583 -1.8316 16.9469 -1.6412 5.3211 -0.4271 -11.0435 10.5750 -2.0613 -5.2640 -1.3545 -26.5358 -13.3038 10.1856 25.4461 19.5305 -37.3991 36.0306 0.0000 0.0000 16.6112 -14.7432 47.8272 11.4386 0.0000 0.0000 0.0000 -0.0000 0.0000 0.0000 -0.5457 15.0175 -19.7316 15.4650 56.3370 -38.3832 -0.0000 -0.0000 -35.8676 -4.8756 -16.9229 5.7392 -0.0000 0.0000 -0.0000 -0.0000 0.0000 0.0000 -38.1860 -3.7564 -62.5679 -4.0036 0.0000 -0.0000 5.5007 11.1440 36.1318 -1.9106 0.0000 -0.0000 -34.6017 -0.7730 12.6807 -13.7716 0.0000 -0.0000 19.7002 -7.4492 -5.3812 -19.7520 0.0000 -0.0000
 -0.1897 15.7670 22.7688 -25.7441 -8.8104 -173.4684 32.3202 -4.6789 5.2834 5.1899 -2.1617 0.5251 4.5057 -1.8096 17.1664 -1.6834 5.3488 -0.4868 -11.3708 10.6016 -1.9678 -5.8355 -1.1294 -27.0068 -13.6759 10.4775 26.0860 17.8761 -36.6298 35.0356 0.0000 0.0000 16.4323 -14.8561 47.6256 11.0558 -0.0000 -0.0000 -0.0000 -0.0000 -0.0000 -0.0000 0.0024 15.0675 -20.1497 13.8151 56.4254 -37.7592 -0.0000 -0.0000 -36.8128 -4.7299 -17.4249 5.5201 0.0000 -0.0000 -0.0000 0.0000 -0.0000 0.0000 -39.4266 -3.8891 -62.3431 -4.0519 0.0000 -0.0000 5.5979 11.4640 35.9271 -1.9952 0.0000 -0.0000 -35.7271 -0.8818 12.3981 -14.0941 0.0000 -0.0000 20.2611 -7.6142 -5.1232 -19.8836 0.0000 -0.0000
